<svg xmlns="http://www.w3.org/2000/svg" xmlns:xlink="http://www.w3.org/1999/xlink" width="14.67" height="19.49" viewBox="0 0 14.67 19.49"><defs><style>.cls-1{fill:url(#linear-gradient);}.cls-2{fill:url(#linear-gradient-2);}.cls-3{fill:url(#linear-gradient-3);}.cls-4{fill:url(#linear-gradient-4);}.cls-5{fill:url(#linear-gradient-5);}.cls-6{fill:url(#linear-gradient-6);}</style><linearGradient id="linear-gradient" x1="12.47" y1="7.49" x2="14.41" y2="7.49" gradientUnits="userSpaceOnUse"><stop offset="0" stop-color="#f19466"/><stop offset="1" stop-color="#f55f6d"/></linearGradient><linearGradient id="linear-gradient-2" x1="6.36" y1="7.49" x2="8.31" y2="7.49" xlink:href="#linear-gradient"/><linearGradient id="linear-gradient-3" x1="0.26" y1="7.49" x2="2.2" y2="7.49" xlink:href="#linear-gradient"/><linearGradient id="linear-gradient-4" x1="0" y1="18.18" x2="2.61" y2="18.18" xlink:href="#linear-gradient"/><linearGradient id="linear-gradient-5" x1="6.03" y1="18.18" x2="8.64" y2="18.18" xlink:href="#linear-gradient"/><linearGradient id="linear-gradient-6" x1="12.06" y1="18.18" x2="14.67" y2="18.18" xlink:href="#linear-gradient"/></defs><title>Amit_sprite</title><path class="cls-1" d="M14.41,1V14a1,1,0,0,1-1.94,0V1a1,1,0,0,1,1.94,0Z"/><path class="cls-2" d="M8.31,1V14a1,1,0,1,1-1.94,0V1A1,1,0,0,1,8.31,1Z"/><path class="cls-3" d="M2.2,1V14A1,1,0,1,1,.26,14V1A1,1,0,0,1,2.2,1Z"/><circle class="cls-4" cx="1.31" cy="18.18" r="1.31"/><circle class="cls-5" cx="7.34" cy="18.18" r="1.31"/><circle class="cls-6" cx="13.36" cy="18.18" r="1.31"/></svg>