<svg xmlns="http://www.w3.org/2000/svg" width="11.41" height="11.41" viewBox="0 0 11.41 11.41"><defs><style>.cls-1{fill:#fff;}</style></defs><title>Amit_sprite</title><path class="cls-1" d="M11.41,9.74V1.67A1.67,1.67,0,0,0,9.74,0H1.67A1.67,1.67,0,0,0,0,1.67V9.74a1.67,1.67,0,0,0,1.67,1.67H9.74A1.67,1.67,0,0,0,11.41,9.74Zm-9.74,1a1,1,0,0,1-1-1V1.67a1,1,0,0,1,1-1H9.74a1,1,0,0,1,1,1V9.74a1,1,0,0,1-1,1Z"/><path class="cls-1" d="M8.72,5.71a3,3,0,1,0-3,3A3,3,0,0,0,8.72,5.71Zm-5.35,0A2.34,2.34,0,1,1,5.71,8,2.34,2.34,0,0,1,3.37,5.71Z"/><path class="cls-1" d="M3.37,2.36a1,1,0,1,0-1,1A1,1,0,0,0,3.37,2.36ZM2,2.36a.33.33,0,1,1,.33.33A.33.33,0,0,1,2,2.36Z"/></svg>