<svg xmlns="http://www.w3.org/2000/svg" width="9.79" height="12.05" viewBox="0 0 9.79 12.05"><defs><style>.cls-1{fill:#fff;}</style></defs><title>Amit_sprite</title><path class="cls-1" d="M1.16,0a4.94,4.94,0,0,1,.39,1.42A2.48,2.48,0,0,0,.18.33,5,5,0,0,1,.78,1.9,2.47,2.47,0,0,0,3,6.12a7,7,0,0,1-2.58,5.1,2.48,2.48,0,0,0,3.3-.77,2.47,2.47,0,0,1-.31,1.12h0a2.48,2.48,0,0,0,2.42-2,2.5,2.5,0,0,1,.09.65,2.37,2.37,0,0,1,0,.47A2.47,2.47,0,0,0,7.66,8.39a5,5,0,0,1,1.06,3.07,5.25,5.25,0,0,1,0,.59A7,7,0,0,0,2.76,1.23H2.44A4.94,4.94,0,0,0,1.16,0Z"/></svg>