<svg xmlns="http://www.w3.org/2000/svg" width="14.67" height="19.49" viewBox="0 0 14.67 19.49"><defs><style>.cls-1{fill:#fff;}</style></defs><title>Amit_sprite</title><path class="cls-1" d="M14.41,1V14a1,1,0,0,1-1.94,0V1a1,1,0,0,1,1.94,0Z"/><path class="cls-1" d="M8.31,1V14a1,1,0,1,1-1.94,0V1A1,1,0,0,1,8.31,1Z"/><path class="cls-1" d="M2.2,1V14A1,1,0,1,1,.26,14V1A1,1,0,0,1,2.2,1Z"/><circle class="cls-1" cx="1.31" cy="18.18" r="1.31"/><circle class="cls-1" cx="7.34" cy="18.18" r="1.31"/><circle class="cls-1" cx="13.36" cy="18.18" r="1.31"/></svg>