<svg xmlns="http://www.w3.org/2000/svg" xmlns:xlink="http://www.w3.org/1999/xlink" width="35.11" height="87.89" viewBox="0 0 35.11 87.89"><defs><style>.cls-1{fill:url(#linear-gradient);}.cls-2{fill:#fff;}</style><linearGradient id="linear-gradient" y1="43.94" x2="35.11" y2="43.94" gradientTransform="translate(35.11 87.89) rotate(180)" gradientUnits="userSpaceOnUse"><stop offset="0" stop-color="#f19466"/><stop offset="1" stop-color="#f55f6d"/></linearGradient></defs><title>Amit_sprite</title><rect class="cls-1" width="35.11" height="87.89" transform="translate(35.11 87.89) rotate(-180)"/><path class="cls-2" d="M17.53,54.11a.73.73,0,0,0,1,0,.73.73,0,0,0,0-1L9.44,43.94l9.13-9.13a.73.73,0,1,0-1-1L7.88,43.42a.73.73,0,0,0,0,1Z"/><path class="cls-2" d="M16.54,44.46a.73.73,0,0,1,0-1l9.65-9.65a.73.73,0,1,1,1,1L18.1,43.94l9.13,9.13a.73.73,0,0,1,0,1,.73.73,0,0,1-1,0Z"/></svg>