<svg xmlns="http://www.w3.org/2000/svg" xmlns:xlink="http://www.w3.org/1999/xlink" width="43.62" height="43.62" viewBox="0 0 43.62 43.62"><defs><style>.cls-1{fill:none;stroke-linecap:round;stroke-miterlimit:10;stroke-width:1.17px;stroke:url(#linear-gradient);}.cls-2{fill:url(#linear-gradient-2);}.cls-3{fill:url(#linear-gradient-3);}.cls-4{fill:url(#linear-gradient-4);}.cls-5{fill:url(#linear-gradient-5);}</style><linearGradient id="linear-gradient" y1="21.81" x2="43.62" y2="21.81" gradientUnits="userSpaceOnUse"><stop offset="0" stop-color="#f19466"/><stop offset="1" stop-color="#f55f6d"/></linearGradient><linearGradient id="linear-gradient-2" x1="12.88" y1="21.81" x2="30.73" y2="21.81" xlink:href="#linear-gradient"/><linearGradient id="linear-gradient-3" x1="14.07" y1="19.44" x2="29.54" y2="19.44" xlink:href="#linear-gradient"/><linearGradient id="linear-gradient-4" x1="14.07" y1="24.93" x2="18.84" y2="24.93" xlink:href="#linear-gradient"/><linearGradient id="linear-gradient-5" x1="24.78" y1="24.93" x2="29.54" y2="24.93" xlink:href="#linear-gradient"/></defs><title>Amit_sprite</title><circle class="cls-1" cx="21.81" cy="21.81" r="21.22"/><path class="cls-2" d="M29.84,15H13.77a.89.89,0,0,0-.89.89v11.9a.89.89,0,0,0,.89.89H29.84a.89.89,0,0,0,.89-.89V15.86A.89.89,0,0,0,29.84,15Zm.3,12.8a.3.3,0,0,1-.3.3H13.77a.3.3,0,0,1-.3-.3V15.86a.3.3,0,0,1,.3-.3H29.84a.3.3,0,0,1,.3.3v11.9Z"/><path class="cls-3" d="M29.27,16.15a.3.3,0,0,0-.22.07L22.19,22a.6.6,0,0,1-.77,0l-6.86-5.77a.3.3,0,0,0-.38.46L21,22.45a1.19,1.19,0,0,0,1.53,0l6.86-5.77a.3.3,0,0,0-.17-.52Z"/><path class="cls-4" d="M18.6,22.41a.3.3,0,0,0-.29.09L14.15,27a.3.3,0,1,0,.44.41l4.17-4.46a.3.3,0,0,0-.15-.5Z"/><path class="cls-5" d="M25.3,22.5a.3.3,0,1,0-.44.41L29,27.37a.3.3,0,0,0,.44-.41Z"/></svg>