<svg xmlns="http://www.w3.org/2000/svg" xmlns:xlink="http://www.w3.org/1999/xlink" width="43.62" height="43.62" viewBox="0 0 43.62 43.62"><defs><style>.cls-1{fill:none;stroke-linecap:round;stroke-miterlimit:10;stroke-width:1.17px;stroke:url(#linear-gradient);}.cls-2{fill:url(#linear-gradient-2);}.cls-3{fill:url(#linear-gradient-3);}</style><linearGradient id="linear-gradient" y1="21.81" x2="43.62" y2="21.81" gradientUnits="userSpaceOnUse"><stop offset="0" stop-color="#f19466"/><stop offset="1" stop-color="#f55f6d"/></linearGradient><linearGradient id="linear-gradient-2" x1="14.44" y1="21.81" x2="29.17" y2="21.81" xlink:href="#linear-gradient"/><linearGradient id="linear-gradient-3" x1="18.22" y1="18.61" x2="25.39" y2="18.61" xlink:href="#linear-gradient"/></defs><title>Amit_sprite</title><circle class="cls-1" cx="21.81" cy="21.81" r="21.22"/><path class="cls-2" d="M21.91,32.37a.43.43,0,0,1-.37-.2l-6-9.68a7.37,7.37,0,1,1,12.59-.1l-5.85,9.77a.43.43,0,0,1-.37.21Zm-.1-20.26A6.5,6.5,0,0,0,16.27,22l5.63,9.08,5.49-9.16a6.51,6.51,0,0,0-5.59-9.84Z"/><path class="cls-3" d="M21.81,22.2a3.58,3.58,0,1,1,3.58-3.58A3.59,3.59,0,0,1,21.81,22.2Zm0-6.31a2.73,2.73,0,1,0,2.72,2.73A2.73,2.73,0,0,0,21.81,15.88Z"/></svg>