<svg xmlns="http://www.w3.org/2000/svg" xmlns:xlink="http://www.w3.org/1999/xlink" width="43.62" height="43.62" viewBox="0 0 43.62 43.62"><defs><style>.cls-1{fill:url(#linear-gradient);}.cls-2{fill:url(#linear-gradient-2);}.cls-3{fill:url(#linear-gradient-3);}.cls-4{fill:url(#linear-gradient-4);}.cls-5{fill:none;stroke-linecap:round;stroke-miterlimit:10;stroke-width:1.17px;stroke:url(#linear-gradient-5);}</style><linearGradient id="linear-gradient" x1="15.7" y1="21.81" x2="27.91" y2="21.81" gradientUnits="userSpaceOnUse"><stop offset="0" stop-color="#f19466"/><stop offset="1" stop-color="#f55f6d"/></linearGradient><linearGradient id="linear-gradient-2" x1="20.37" y1="30.07" x2="23.24" y2="30.07" xlink:href="#linear-gradient"/><linearGradient id="linear-gradient-3" x1="20.01" y1="12.47" x2="22.17" y2="12.47" xlink:href="#linear-gradient"/><linearGradient id="linear-gradient-4" x1="22.53" y1="12.47" x2="23.6" y2="12.47" xlink:href="#linear-gradient"/><linearGradient id="linear-gradient-5" x1="0" y1="21.81" x2="43.62" y2="21.81" xlink:href="#linear-gradient"/></defs><title>Amit_sprite</title><path class="cls-1" d="M26.33,11h-9a1.58,1.58,0,0,0-1.58,1.58V31a1.58,1.58,0,0,0,1.58,1.58h9A1.58,1.58,0,0,0,27.91,31V12.61A1.58,1.58,0,0,0,26.33,11Zm-9.91,2.87H27.2V27.55H16.42Zm.86-2.16h9a.86.86,0,0,1,.86.86v.57H16.42v-.57A.86.86,0,0,1,17.28,11.75Zm9,20.11h-9a.86.86,0,0,1-.86-.86V28.27H27.2V31A.86.86,0,0,1,26.33,31.87Z"/><path class="cls-2" d="M21.81,28.63a1.44,1.44,0,1,0,1.44,1.44A1.44,1.44,0,0,0,21.81,28.63Zm0,2.16a.72.72,0,1,1,.72-.72A.72.72,0,0,1,21.81,30.79Z"/><path class="cls-3" d="M20.37,12.83h1.44a.36.36,0,0,0,0-.72H20.37a.36.36,0,0,0,0,.72Z"/><path class="cls-4" d="M22.89,12.83h.36a.36.36,0,0,0,0-.72h-.36a.36.36,0,1,0,0,.72Z"/><circle class="cls-5" cx="21.81" cy="21.81" r="21.22"/></svg>