<svg xmlns="http://www.w3.org/2000/svg" width="35.11" height="87.89" viewBox="0 0 35.11 87.89"><defs><style>.cls-1{fill:#3e4450;}.cls-2{fill:#fff;}</style></defs><title>Amit_sprite</title><rect class="cls-1" width="35.11" height="87.89"/><path class="cls-2" d="M17.58,54.11a.73.73,0,0,1-1,0,.73.73,0,0,1,0-1l9.13-9.13-9.13-9.13a.73.73,0,1,1,1-1l9.65,9.65a.73.73,0,0,1,0,1Z"/><path class="cls-2" d="M18.57,44.46a.73.73,0,0,0,0-1L8.92,33.78a.73.73,0,1,0-1,1L17,43.94,7.88,53.07a.73.73,0,0,0,0,1,.73.73,0,0,0,1,0Z"/></svg>