<svg xmlns="http://www.w3.org/2000/svg" xmlns:xlink="http://www.w3.org/1999/xlink" width="67.86" height="58.66" viewBox="0 0 67.86 58.66"><defs><style>.cls-1{fill:url(#linear-gradient);}.cls-2{fill:url(#linear-gradient-2);}.cls-3{fill:url(#linear-gradient-3);}.cls-4{fill:url(#linear-gradient-4);}.cls-5{fill:url(#linear-gradient-5);}.cls-6{fill:url(#linear-gradient-6);}.cls-7{fill:url(#linear-gradient-7);}.cls-8{fill:url(#linear-gradient-8);}.cls-9{fill:url(#linear-gradient-9);}.cls-10{fill:url(#linear-gradient-10);}.cls-11{fill:url(#linear-gradient-11);}.cls-12{fill:url(#linear-gradient-12);}.cls-13{fill:url(#linear-gradient-13);}.cls-14{fill:url(#linear-gradient-14);}</style><linearGradient id="linear-gradient" x1="10.97" y1="37.1" x2="64.27" y2="37.1" gradientUnits="userSpaceOnUse"><stop offset="0" stop-color="#f19466"/><stop offset="1" stop-color="#f55f6d"/></linearGradient><linearGradient id="linear-gradient-2" x1="56.4" y1="14.87" x2="61.05" y2="14.87" xlink:href="#linear-gradient"/><linearGradient id="linear-gradient-3" x1="0" y1="26.71" x2="67.86" y2="26.71" xlink:href="#linear-gradient"/><linearGradient id="linear-gradient-4" x1="12.6" y1="51.69" x2="14.86" y2="51.69" xlink:href="#linear-gradient"/><linearGradient id="linear-gradient-5" x1="15.61" y1="51.69" x2="18.01" y2="51.69" xlink:href="#linear-gradient"/><linearGradient id="linear-gradient-6" x1="18.79" y1="51.69" x2="21.7" y2="51.69" xlink:href="#linear-gradient"/><linearGradient id="linear-gradient-7" x1="22.09" y1="51.69" x2="24.38" y2="51.69" xlink:href="#linear-gradient"/><linearGradient id="linear-gradient-8" x1="24.78" y1="51.69" x2="27.69" y2="51.69" xlink:href="#linear-gradient"/><linearGradient id="linear-gradient-9" x1="28.47" y1="51.69" x2="30.87" y2="51.69" xlink:href="#linear-gradient"/><linearGradient id="linear-gradient-10" x1="31.84" y1="51.69" x2="34.14" y2="51.69" xlink:href="#linear-gradient"/><linearGradient id="linear-gradient-11" x1="34.52" y1="51.69" x2="37.45" y2="51.69" xlink:href="#linear-gradient"/><linearGradient id="linear-gradient-12" x1="38.04" y1="51.69" x2="40.3" y2="51.69" xlink:href="#linear-gradient"/><linearGradient id="linear-gradient-13" x1="41.05" y1="51.69" x2="43.45" y2="51.69" xlink:href="#linear-gradient"/><linearGradient id="linear-gradient-14" x1="44.03" y1="51.69" x2="46.64" y2="51.69" xlink:href="#linear-gradient"/></defs><title>Amit_sprite</title><path class="cls-1" d="M57.65,51.09c1.17,1.53,2.17,3.21,3.41,4.69a13,13,0,0,0,2.41,1.75,8.24,8.24,0,0,1,.8.77l-.27.37h-9.4c-1.53,0-3.07-.06-4.6,0l-.2-.94c2-1.63,2.38-1.18.47-4-5.19-7.54-10.43-15.05-15.66-22.57-.16-.24-.37-.44-.73-.87,0,.73,0,1.17,0,1.6,0,2.3,0,4.6.09,6.9a2.36,2.36,0,0,0,.94,1.75c.35.19,1.14-.46,1.73-.73l.19-.07c.67.29.83.71.27,1.23a18,18,0,0,1-3,2.64c-3.62,2.06-7.15.61-8.43-3.33,0-.06-.09-.09-.19-.18l-.92.74a15.57,15.57,0,0,1-7.06,3.54c-3.76.63-7-2.3-6.43-6a8.43,8.43,0,0,1,1.76-3.9A17,17,0,0,1,17,30.94c2.46-1.48,5.09-2.68,7.69-3.92a1.35,1.35,0,0,0,.92-1.49c-.06-1.13-.06-2.26,0-3.39C25.78,18.46,23.1,17,19.84,18c-1.7.5-2.86,1.6-1.13,3.51a3.27,3.27,0,0,1,.77,3.73,3.62,3.62,0,0,1-3.24,2.08,4,4,0,0,1-4.42-5.49,7.35,7.35,0,0,1,2.88-3.62,15.71,15.71,0,0,1,8.44-2.63,11.94,11.94,0,0,1,7.25,1.58,6.36,6.36,0,0,1,3.31,5.46q.08,3.06.17,6.13c0,.34,0,.68.06,1,2.47-2.39,4.91-4.73,7.31-7.11a5.87,5.87,0,0,0,1-1.54,1.84,1.84,0,0,0-1.09-2.88,4.89,4.89,0,0,0-1-.29c-.73-.12-.86-.5-.6-1.14H51.7c.24.62.15.89-.55,1.1a9.26,9.26,0,0,0-3.28,1.4c-2.59,2.17-5,4.53-7.53,6.84L56.57,49.49Zm-32-22.59a16,16,0,0,0-5.29,4.37,8.59,8.59,0,0,0-1.24,2.87,3.23,3.23,0,0,0,2,3.63c1.29.44,3.82-.4,4.44-1.49a.86.86,0,0,0,.1-.41C25.62,34.56,25.62,31.64,25.62,28.49Z"/><circle class="cls-2" cx="58.73" cy="14.87" r="2.32"/><path class="cls-3" d="M65.61,8.32a7.3,7.3,0,0,0-5.35-2.26H49.54V5.93A5.79,5.79,0,0,0,47.8,1.74,5.9,5.9,0,0,0,43.61,0H24.26a5.95,5.95,0,0,0-6,5.93v.13H7.61A7.3,7.3,0,0,0,2.26,8.32,7.67,7.67,0,0,0,0,13.68V45.8a7.3,7.3,0,0,0,2.26,5.35,7.67,7.67,0,0,0,5.35,2.26h3.85V50H7.61A4.18,4.18,0,0,1,3.42,45.8V13.68A4.18,4.18,0,0,1,7.61,9.48H20.06A1.73,1.73,0,0,0,21.8,7.74V5.87a2.53,2.53,0,0,1,.71-1.81,2.53,2.53,0,0,1,1.81-.71H43.61a2.53,2.53,0,0,1,1.81.71,2.53,2.53,0,0,1,.71,1.81V7.74a1.73,1.73,0,0,0,1.74,1.74H60.32a4.18,4.18,0,0,1,4.19,4.19V45.8h-.06a4.18,4.18,0,0,1-4,4.18l2,3.12a7.22,7.22,0,0,0,3.19-1.95,7.67,7.67,0,0,0,2.26-5.35V13.68A7.3,7.3,0,0,0,65.61,8.32Z"/><path class="cls-4" d="M14.86,51.3c0,.59-.44,1-1.15,1H13.1V53h-.5v-2.7h1.11C14.42,50.34,14.86,50.71,14.86,51.3Zm-.5,0c0-.34-.23-.54-.67-.54H13.1v1.07h.59C14.13,51.84,14.36,51.64,14.36,51.3Z"/><path class="cls-5" d="M18,50.34V53h-.5V51.89h-1.4V53h-.5v-2.7h.5v1.11h1.4V50.34Z"/><path class="cls-6" d="M18.79,51.69a1.45,1.45,0,1,1,1.45,1.39A1.38,1.38,0,0,1,18.79,51.69Zm2.4,0a.95.95,0,1,0-.95.95A.92.92,0,0,0,21.19,51.69Z"/><path class="cls-7" d="M23,50.77h-.89v-.42h2.29v.42h-.89V53H23Z"/><path class="cls-8" d="M24.78,51.69a1.45,1.45,0,1,1,1.45,1.39A1.38,1.38,0,0,1,24.78,51.69Zm2.4,0a.95.95,0,1,0-.95.95A.92.92,0,0,0,27.18,51.69Z"/><path class="cls-9" d="M30.87,50.34V53h-.5V51.89H29V53h-.5v-2.7H29v1.11h1.4V50.34Z"/><path class="cls-10" d="M33.6,53l-.55-.79h-.71V53h-.5v-2.7h1.11c.71,0,1.15.36,1.15,1a.86.86,0,0,1-.57.85l.62.89Zm-.68-2.27h-.59v1.08h.59c.44,0,.67-.2.67-.54S33.37,50.77,32.93,50.77Z"/><path class="cls-11" d="M36.66,52.42H35.31L35,53h-.52l1.21-2.7h.49L37.45,53h-.52ZM36.49,52,36,50.85,35.48,52Z"/><path class="cls-12" d="M40.3,51.3c0,.59-.44,1-1.15,1h-.61V53H38v-2.7h1.11C39.86,50.34,40.3,50.71,40.3,51.3Zm-.5,0c0-.34-.23-.54-.67-.54h-.59v1.07h.59C39.57,51.84,39.8,51.64,39.8,51.3Z"/><path class="cls-13" d="M43.45,50.34V53h-.5V51.89h-1.4V53h-.5v-2.7h.5v1.11h1.4V50.34Z"/><path class="cls-14" d="M45.59,52.09v1h-.5V52.1L44,50.34h.54l.79,1.31.8-1.31h.49Z"/></svg>